<svg width="1440" height="902" viewBox="0 0 1440 902" fill="none" xmlns="http://www.w3.org/2000/svg">
<g filter="url(#filter0_d_2182_8)">
<path d="M1428.5 727C1428.5 787.395 1420.95 846.026 1406.74 902C1288 902 1039.18 902 708 902C376.825 902 169 902 32.2614 902C18.0514 846.026 10.5 787.395 10.5 727C10.5 335.43 327.93 18 719.5 18C1111.07 18 1428.5 335.43 1428.5 727Z" fill="#212330">
<animate attributeName="opacity"
             values="0; 1; 0.5" dur="10s"
             repeatCount="indefinite"/>
</path>
<path d="M11 727C11 335.706 328.206 18.5 719.5 18.5C1110.79 18.5 1428 335.706 1428 727C1428 787.217 1420.49 845.679 1406.35 901.5H1406.04H1405.34H1404.64H1403.93H1403.22H1402.51H1401.8H1401.08H1400.36H1399.63H1398.91H1398.18H1397.44H1396.71H1395.97H1395.23H1394.48H1393.74H1392.98H1392.23H1391.47H1390.72H1389.95H1389.19H1388.42H1387.65H1386.88H1386.1H1385.32H1384.54H1383.75H1382.96H1382.17H1381.38H1380.58H1379.78H1378.98H1378.17H1377.36H1376.55H1375.74H1374.92H1374.1H1373.27H1372.45H1371.62H1370.79H1369.95H1369.12H1368.27H1367.43H1366.58H1365.74H1364.88H1364.03H1363.17H1362.31H1361.45H1360.58H1359.71H1358.84H1357.97H1357.09H1356.21H1355.32H1354.44H1353.55H1352.66H1351.76H1350.86H1349.96H1349.06H1348.16H1347.25H1346.33H1345.42H1344.5H1343.58H1342.66H1341.73H1340.81H1339.87H1338.94H1338H1337.06H1336.12H1335.18H1334.23H1333.28H1332.32H1331.37H1330.41H1329.45H1328.48H1327.51H1326.54H1325.57H1324.59H1323.62H1322.63H1321.65H1320.66H1319.67H1318.68H1317.69H1316.69H1315.69H1314.68H1313.68H1312.67H1311.66H1310.64H1309.62H1308.6H1307.58H1306.56H1305.53H1304.5H1303.46H1302.43H1301.39H1300.35H1299.3H1298.26H1297.21H1296.15H1295.1H1294.04H1292.98H1291.92H1290.85H1289.78H1288.71H1287.63H1286.56H1285.48H1284.4H1283.31H1282.22H1281.13H1280.04H1278.94H1277.85H1276.74H1275.64H1274.53H1273.43H1272.31H1271.2H1270.08H1268.96H1267.84H1266.72H1265.59H1264.46H1263.32H1262.19H1261.05H1259.91H1258.77H1257.62H1256.47H1255.32H1254.17H1253.01H1251.85H1250.69H1249.52H1248.36H1247.19H1246.01H1244.84H1243.66H1242.48H1241.3H1240.11H1238.93H1237.74H1236.54H1235.35H1234.15H1232.95H1231.74H1230.54H1229.33H1228.12H1226.9H1225.69H1224.47H1223.25H1222.02H1220.79H1219.57H1218.33H1217.1H1215.86H1214.62H1213.38H1212.14H1210.89H1209.64H1208.39H1207.13H1205.87H1204.61H1203.35H1202.09H1200.82H1199.55H1198.28H1197H1195.72H1194.44H1193.16H1191.87H1190.59H1189.3H1188H1186.71H1185.41H1184.11H1182.81H1181.5H1180.19H1178.88H1177.57H1176.26H1174.94H1173.62H1172.29H1170.97H1169.64H1168.31H1166.98H1165.64H1164.3H1162.96H1161.62H1160.28H1158.93H1157.58H1156.23H1154.87H1153.51H1152.15H1150.79H1149.43H1148.06H1146.69H1145.32H1143.94H1142.57H1141.19H1139.8H1138.42H1137.03H1135.64H1134.25H1132.86H1131.46H1130.06H1128.66H1127.26H1125.85H1124.44H1123.03H1121.62H1120.2H1118.78H1117.36H1115.94H1114.51H1113.09H1111.66H1110.22H1108.79H1107.35H1105.91H1104.47H1103.03H1101.58H1100.13H1098.68H1097.22H1095.77H1094.31H1092.85H1091.38H1089.92H1088.45H1086.98H1085.51H1084.03H1082.55H1081.07H1079.59H1078.1H1076.62H1075.13H1073.64H1072.14H1070.65H1069.15H1067.65H1066.14H1064.64H1063.13H1061.62H1060.11H1058.59H1057.07H1055.55H1054.03H1052.51H1050.98H1049.45H1047.92H1046.39H1044.85H1043.31H1041.77H1040.23H1038.69H1037.14H1035.59H1034.04H1032.48H1030.93H1029.37H1027.81H1026.24H1024.68H1023.11H1021.54H1019.97H1018.39H1016.82H1015.24H1013.66H1012.07H1010.49H1008.9H1007.31H1005.72H1004.12H1002.52H1000.92H999.322H997.719H996.113H994.504H992.894H991.281H989.666H988.049H986.43H984.808H983.184H981.558H979.93H978.3H976.667H975.032H973.395H971.756H970.115H968.471H966.825H965.177H963.527H961.874H960.22H958.563H956.904H955.243H953.58H951.914H950.246H948.577H946.905H945.23H943.554H941.876H940.195H938.512H936.827H935.14H933.451H931.759H930.066H928.37H926.672H924.972H923.27H921.566H919.859H918.151H916.44H914.727H913.012H911.295H909.576H907.855H906.131H904.406H902.678H900.948H899.217H897.483H895.747H894.008H892.268H890.526H888.781H887.035H885.286H883.535H881.782H880.028H878.271H876.511H874.75H872.987H871.222H869.454H867.685H865.913H864.14H862.364H860.586H858.807H857.025H855.241H853.455H851.667H849.877H848.085H846.291H844.495H842.696H840.896H839.094H837.289H835.483H833.675H831.864H830.052H828.237H826.421H824.602H822.782H820.959H819.135H817.308H815.48H813.649H811.816H809.982H808.145H806.307H804.466H802.623H800.779H798.932H797.084H795.233H793.381H791.526H789.67H787.811H785.951H784.089H782.224H780.358H778.49H776.619H774.747H772.873H770.997H769.119H767.239H765.357H763.473H761.587H759.699H757.809H755.917H754.024H752.128H750.231H748.331H746.43H744.526H742.621H740.714H738.805H736.894H734.981H733.066H731.149H729.231H727.31H725.388H723.463H721.537H719.609H717.679H715.747H713.813H711.877H709.94H708H706.061H704.125H702.191H700.261H698.333H696.408H694.486H692.566H690.65H688.736H686.825H684.917H683.011H681.109H679.209H677.312H675.418H673.526H671.638H669.752H667.869H665.989H664.111H662.236H660.364H658.495H656.628H654.765H652.904H651.046H649.19H647.337H645.487H643.64H641.796H639.954H638.115H636.279H634.445H632.615H630.786H628.961H627.138H625.319H623.501H621.687H619.875H618.066H616.26H614.456H612.656H610.857H609.062H607.269H605.479H603.692H601.907H600.125H598.346H596.569H594.795H593.024H591.255H589.489H587.726H585.965H584.208H582.452H580.7H578.95H577.203H575.458H573.716H571.977H570.24H568.506H566.775H565.046H563.32H561.597H559.876H558.158H556.442H554.729H553.019H551.311H549.606H547.904H546.204H544.507H542.813H541.121H539.431H537.745H536.06H534.379H532.7H531.024H529.35H527.679H526.01H524.344H522.681H521.02H519.362H517.706H516.053H514.403H512.755H511.11H509.467H507.827H506.189H504.554H502.921H501.291H499.664H498.039H496.417H494.797H493.18H491.565H489.953H488.343H486.736H485.132H483.53H481.93H480.333H478.739H477.147H475.557H473.97H472.386H470.804H469.225H467.648H466.074H464.502H462.932H461.365H459.801H458.239H456.68H455.123H453.568H452.016H450.467H448.92H447.376H445.833H444.294H442.757H441.222H439.69H438.16H436.633H435.108H433.586H432.066H430.549H429.034H427.521H426.011H424.503H422.998H421.495H419.995H418.497H417.001H415.508H414.018H412.53H411.044H409.56H408.079H406.601H405.125H403.651H402.18H400.711H399.244H397.78H396.318H394.859H393.402H391.947H390.495H389.045H387.598H386.153H384.71H383.27H381.832H380.396H378.963H377.532H376.104H374.678H373.254H371.833H370.414H368.997H367.583H366.171H364.761H363.354H361.949H360.546H359.146H357.748H356.352H354.959H353.568H352.18H350.793H349.409H348.028H346.648H345.271H343.896H342.524H341.154H339.786H338.42H337.057H335.696H334.338H332.981H331.627H330.275H328.926H327.579H326.234H324.891H323.551H322.213H320.877H319.543H318.212H316.883H315.556H314.231H312.909H311.589H310.271H308.956H307.643H306.332H305.023H303.716H302.412H301.11H299.81H298.512H297.217H295.924H294.633H293.344H292.058H290.773H289.491H288.211H286.934H285.658H284.385H283.114H281.845H280.578H279.314H278.052H276.792H275.534H274.278H273.025H271.773H270.524H269.277H268.032H266.79H265.549H264.311H263.075H261.841H260.609H259.379H258.152H256.926H255.703H254.482H253.263H252.047H250.832H249.619H248.409H247.201H245.995H244.791H243.589H242.389H241.192H239.996H238.803H237.612H236.423H235.236H234.051H232.868H231.687H230.509H229.332H228.158H226.986H225.815H224.647H223.481H222.317H221.155H219.996H218.838H217.682H216.529H215.377H214.228H213.081H211.935H210.792H209.651H208.512H207.375H206.24H205.107H203.976H202.847H201.72H200.595H199.473H198.352H197.233H196.117H195.002H193.89H192.779H191.671H190.564H189.46H188.357H187.257H186.158H185.062H183.967H182.875H181.784H180.696H179.61H178.525H177.443H176.362H175.284H174.207H173.133H172.06H170.99H169.921H168.854H167.79H166.727H165.666H164.608H163.551H162.496H161.443H160.392H159.343H158.296H157.251H156.208H155.167H154.128H153.09H152.055H151.022H149.99H148.961H147.933H146.907H145.883H144.862H143.842H142.824H141.807H140.793H139.781H138.771H137.762H136.755H135.751H134.748H133.747H132.748H131.751H130.756H129.762H128.771H127.781H126.793H125.807H124.824H123.841H122.861H121.883H120.906H119.932H118.959H117.988H117.019H116.052H115.086H114.123H113.161H112.201H111.243H110.287H109.332H108.38H107.429H106.48H105.533H104.588H103.645H102.703H101.764H100.826H99.8895H98.9551H98.0226H97.0919H96.163H95.2359H94.3106H93.3871H92.4654H91.5455H90.6273H89.711H88.7964H87.8836H86.9726H86.0634H85.1559H84.2503H83.3464H82.4442H81.5438H80.6452H79.7483H78.8532H77.9599H77.0683H76.1785H75.2904H74.404H73.5194H72.6366H71.7554H70.876H69.9984H69.1225H68.2483H67.3758H66.5051H65.6361H64.7688H63.9032H63.0394H62.1772H61.3168H60.458H59.601H58.7457H57.8921H57.0402H56.19H55.3414H54.4946H53.6495H52.806H51.9643H51.1242H50.2858H49.4491H48.614H47.7806H46.9489H46.1189H45.2905H44.4638H43.6388H42.8154H41.9937H41.1736H40.3552H39.5384H38.7233H37.9098H37.098H36.2878H35.4793H34.6724H33.8671H33.0634H32.6505C18.5123 845.679 11 787.217 11 727Z" stroke="white" stroke-opacity="0.05"/>
</g>
<g filter="url(#filter1_d_2182_8)">
<path d="M1338.8 726.998C1338.8 787.957 1329.99 846.858 1313.58 902.5C1114 902.5 1000.57 902.5 719.498 902.5C438.061 902.5 326 901.5 125.122 901.5C108.899 846.153 100.197 787.592 100.197 726.998C100.197 384.968 377.468 107.697 719.498 107.697C1061.53 107.697 1338.8 384.968 1338.8 726.998Z" fill="#212330">


</path>
<path d="M100.697 726.998C100.697 385.244 377.744 108.197 719.498 108.197C1061.25 108.197 1338.3 385.244 1338.3 726.998C1338.3 787.777 1329.54 846.509 1313.21 902H1312.41H1311.24H1310.08H1308.92H1307.76H1306.6H1305.44H1304.29H1303.13H1301.98H1300.83H1299.69H1298.54H1297.4H1296.25H1295.11H1293.97H1292.84H1291.7H1290.57H1289.44H1288.31H1287.18H1286.06H1284.93H1283.81H1282.69H1281.57H1280.45H1279.33H1278.22H1277.11H1275.99H1274.88H1273.78H1272.67H1271.57H1270.46H1269.36H1268.26H1267.16H1266.06H1264.97H1263.87H1262.78H1261.69H1260.6H1259.51H1258.42H1257.34H1256.25H1255.17H1254.09H1253.01H1251.93H1250.85H1249.78H1248.7H1247.63H1246.56H1245.48H1244.41H1243.35H1242.28H1241.21H1240.15H1239.09H1238.02H1236.96H1235.9H1234.84H1233.79H1232.73H1231.68H1230.62H1229.57H1228.52H1227.47H1226.42H1225.37H1224.32H1223.27H1222.23H1221.18H1220.14H1219.1H1218.06H1217.02H1215.98H1214.94H1213.9H1212.87H1211.83H1210.8H1209.76H1208.73H1207.7H1206.67H1205.64H1204.61H1203.58H1202.55H1201.52H1200.5H1199.47H1198.45H1197.42H1196.4H1195.38H1194.36H1193.34H1192.32H1191.3H1190.28H1189.26H1188.24H1187.23H1186.21H1185.19H1184.18H1183.17H1182.15H1181.14H1180.13H1179.11H1178.1H1177.09H1176.08H1175.07H1174.06H1173.05H1172.05H1171.04H1170.03H1169.02H1168.02H1167.01H1166.01H1165H1164H1162.99H1161.99H1160.98H1159.98H1158.98H1157.98H1156.97H1155.97H1154.97H1153.97H1152.97H1151.97H1150.97H1149.97H1148.97H1147.97H1146.97H1145.97H1144.97H1143.97H1142.97H1141.97H1140.97H1139.97H1138.97H1137.98H1136.98H1135.98H1134.98H1133.98H1132.98H1131.99H1130.99H1129.99H1128.99H1127.99H1127H1126H1125H1124H1123H1122H1121.01H1120.01H1119.01H1118.01H1117.01H1116.01H1115.01H1114.01H1113.01H1112.01H1111.01H1110.01H1109.01H1108.01H1107.01H1106.01H1105.01H1104.01H1103H1102H1101H1100H1098.99H1097.99H1096.98H1095.98H1094.97H1093.97H1092.96H1091.96H1090.95H1089.94H1088.94H1087.93H1086.92H1085.91H1084.9H1083.89H1082.88H1081.87H1080.86H1079.85H1078.83H1077.82H1076.81H1075.79H1074.78H1073.76H1072.75H1071.73H1070.71H1069.69H1068.67H1067.65H1066.63H1065.61H1064.59H1063.57H1062.55H1061.52H1060.5H1059.47H1058.44H1057.42H1056.39H1055.36H1054.33H1053.3H1052.27H1051.24H1050.2H1049.17H1048.13H1047.1H1046.06H1045.02H1043.98H1042.94H1041.9H1040.86H1039.82H1038.78H1037.73H1036.69H1035.64H1034.59H1033.54H1032.49H1031.44H1030.39H1029.34H1028.28H1027.23H1026.17H1025.11H1024.05H1022.99H1021.93H1020.87H1019.8H1018.74H1017.67H1016.6H1015.54H1014.47H1013.39H1012.32H1011.25H1010.17H1009.1H1008.02H1006.94H1005.86H1004.78H1003.69H1002.61H1001.52H1000.43H999.344H998.253H997.161H996.068H994.973H993.876H992.778H991.679H990.578H989.475H988.371H987.266H986.158H985.05H983.939H982.827H981.714H980.599H979.482H978.363H977.243H976.121H974.998H973.872H972.746H971.617H970.487H969.355H968.221H967.085H965.948H964.809H963.668H962.525H961.38H960.234H959.086H957.936H956.784H955.63H954.474H953.317H952.157H950.996H949.832H948.667H947.5H946.331H945.159H943.986H942.811H941.634H940.455H939.273H938.09H936.905H935.717H934.528H933.336H932.143H930.947H929.749H928.549H927.347H926.142H924.936H923.727H922.516H921.303H920.088H918.87H917.65H916.428H915.204H913.977H912.749H911.517H910.284H909.048H907.81H906.57H905.327H904.082H902.834H901.584H900.332H899.077H897.82H896.561H895.299H894.034H892.767H891.498H890.226H888.952H887.675H886.395H885.113H883.829H882.542H881.252H879.96H878.665H877.368H876.068H874.765H873.46H872.152H870.842H869.529H868.213H866.894H865.573H864.249H862.922H861.593H860.26H858.925H857.588H856.247H854.904H853.558H852.209H850.857H849.502H848.145H846.785H845.421H844.055H842.686H841.315H839.94H838.562H837.181H835.798H834.411H833.022H831.629H830.234H828.835H827.434H826.029H824.621H823.211H821.797H820.38H818.96H817.537H816.111H814.682H813.249H811.814H810.375H808.933H807.488H806.04H804.589H803.134H801.676H800.215H798.751H797.283H795.812H794.338H792.861H791.38H789.896H788.408H786.918H785.424H783.926H782.425H780.921H779.414H777.903H776.388H774.87H773.349H771.824H770.296H768.764H767.229H765.691H764.148H762.603H761.054H759.501H757.945H756.385H754.821H753.254H751.684H750.109H748.531H746.95H745.365H743.776H742.184H740.587H738.988H737.384H735.777H734.166H732.551H730.933H729.311H727.685H726.055H724.421H722.784H721.143H719.498C578.78 902 480.406 901.75 392.102 901.5C384.676 901.479 377.321 901.458 370.018 901.437C290.59 901.21 217.315 901.001 125.497 901C109.355 845.804 100.697 787.413 100.697 726.998Z" stroke="white" stroke-opacity="0.05"/>
</g>
<g filter="url(#filter2_d_2182_8)">
<path d="M1248.05 726.998C1248.05 788.333 1237.61 847.228 1218.4 902C1068 902 950.077 902 719.498 902C488.92 902 416 902 220.601 902C201.389 847.228 190.942 788.333 190.942 726.998C190.942 435.085 427.585 198.442 719.498 198.442C1011.41 198.442 1248.05 435.085 1248.05 726.998Z" fill="#212330">

</path>
<path d="M191.442 726.998C191.442 435.361 427.861 198.942 719.498 198.942C1011.14 198.942 1247.55 435.361 1247.55 726.998C1247.55 788.151 1237.16 846.875 1218.04 901.5H1217.51H1216.63H1215.76H1214.88H1214H1213.12H1212.24H1211.37H1210.49H1209.62H1208.75H1207.87H1207H1206.13H1205.26H1204.39H1203.52H1202.65H1201.78H1200.91H1200.04H1199.18H1198.31H1197.45H1196.58H1195.72H1194.85H1193.99H1193.13H1192.26H1191.4H1190.54H1189.68H1188.82H1187.96H1187.1H1186.24H1185.39H1184.53H1183.67H1182.82H1181.96H1181.1H1180.25H1179.39H1178.54H1177.69H1176.83H1175.98H1175.13H1174.28H1173.42H1172.57H1171.72H1170.87H1170.02H1169.17H1168.32H1167.47H1166.63H1165.78H1164.93H1164.08H1163.24H1162.39H1161.54H1160.7H1159.85H1159.01H1158.16H1157.32H1156.47H1155.63H1154.78H1153.94H1153.09H1152.25H1151.41H1150.57H1149.72H1148.88H1148.04H1147.2H1146.35H1145.51H1144.67H1143.83H1142.99H1142.15H1141.31H1140.47H1139.63H1138.79H1137.95H1137.11H1136.27H1135.43H1134.59H1133.75H1132.91H1132.07H1131.23H1130.39H1129.55H1128.71H1127.87H1127.03H1126.2H1125.36H1124.52H1123.68H1122.84H1122H1121.16H1120.33H1119.49H1118.65H1117.81H1116.97H1116.13H1115.29H1114.45H1113.62H1112.78H1111.94H1111.1H1110.26H1109.42H1108.58H1107.74H1106.9H1106.06H1105.22H1104.38H1103.54H1102.7H1101.86H1101.02H1100.18H1099.34H1098.5H1097.66H1096.82H1095.98H1095.13H1094.29H1093.45H1092.61H1091.77H1090.92H1090.08H1089.24H1088.39H1087.55H1086.71H1085.86H1085.02H1084.17H1083.33H1082.48H1081.64H1080.79H1079.95H1079.1H1078.25H1077.41H1076.56H1075.71H1074.86H1074.01H1073.17H1072.32H1071.47H1070.62H1069.77H1068.92H1068.07H1067.21H1066.36H1065.51H1064.66H1063.8H1062.95H1062.1H1061.24H1060.39H1059.53H1058.68H1057.82H1056.96H1056.1H1055.25H1054.39H1053.53H1052.67H1051.81H1050.95H1050.09H1049.23H1048.37H1047.5H1046.64H1045.78H1044.91H1044.05H1043.18H1042.32H1041.45H1040.58H1039.71H1038.84H1037.98H1037.11H1036.24H1035.36H1034.49H1033.62H1032.75H1031.87H1031H1030.12H1029.25H1028.37H1027.49H1026.62H1025.74H1024.86H1023.98H1023.1H1022.22H1021.33H1020.45H1019.57H1018.68H1017.8H1016.91H1016.02H1015.14H1014.25H1013.36H1012.47H1011.58H1010.69H1009.79H1008.9H1008.01H1007.11H1006.22H1005.32H1004.42H1003.52H1002.62H1001.72H1000.82H999.919H999.016H998.112H997.207H996.301H995.394H994.486H993.578H992.668H991.757H990.846H989.933H989.02H988.105H987.19H986.273H985.356H984.437H983.518H982.597H981.675H980.753H979.829H978.904H977.978H977.051H976.123H975.194H974.264H973.333H972.401H971.467H970.533H969.597H968.66H967.722H966.783H965.843H964.902H963.959H963.015H962.071H961.125H960.177H959.229H958.279H957.329H956.377H955.423H954.469H953.513H952.556H951.598H950.639H949.678H948.716H947.753H946.788H945.823H944.856H943.887H942.918H941.947H940.975H940.001H939.026H938.05H937.072H936.093H935.113H934.131H933.148H932.164H931.178H930.191H929.203H928.213H927.221H926.229H925.235H924.239H923.242H922.244H921.244H920.242H919.24H918.235H917.23H916.222H915.214H914.204H913.192H912.179H911.164H910.148H909.13H908.111H907.09H906.068H905.044H904.019H902.992H901.963H900.933H899.901H898.868H897.833H896.797H895.759H894.719H893.678H892.635H891.59H890.544H889.496H888.447H887.396H886.343H885.288H884.232H883.174H882.115H881.054H879.991H878.926H877.86H876.792H875.722H874.65H873.577H872.502H871.425H870.347H869.266H868.184H867.101H866.015H864.927H863.838H862.747H861.654H860.56H859.463H858.365H857.265H856.163H855.059H853.953H852.845H851.736H850.625H849.511H848.396H847.279H846.16H845.039H843.917H842.792H841.665H840.537H839.406H838.274H837.14H836.003H834.865H833.725H832.582H831.438H830.292H829.143H827.993H826.841H825.687H824.53H823.372H822.212H821.049H819.885H818.718H817.549H816.379H815.206H814.031H812.854H811.675H810.494H809.311H808.125H806.938H805.748H804.556H803.362H802.166H800.968H799.768H798.565H797.36H796.154H794.944H793.733H792.52H791.304H790.086H788.866H787.643H786.419H785.192H783.963H782.731H781.498H780.262H779.024H777.783H776.541H775.296H774.048H772.799H771.547H770.292H769.036H767.777H766.516H765.252H763.986H762.718H761.447H760.174H758.899H757.621H756.341H755.058H753.773H752.486H751.196H749.904H748.609H747.312H746.012H744.71H743.406H742.099H740.789H739.478H738.163H736.846H735.527H734.205H732.881H731.554H730.225H728.893H727.558H726.221H724.882H723.54H722.195H720.848H719.498H718.149H716.803H715.461H714.123H712.788H711.457H710.129H708.804H707.484H706.166H704.852H703.542H702.235H700.932H699.632H698.335H697.042H695.752H694.465H693.182H691.903H690.626H689.353H688.084H686.817H685.554H684.294H683.038H681.784H680.534H679.288H678.044H676.804H675.566H674.332H673.102H671.874H670.649H669.428H668.21H666.995H665.782H664.573H663.368H662.165H660.965H659.768H658.574H657.384H656.196H655.011H653.829H652.65H651.474H650.301H649.131H647.964H646.8H645.639H644.48H643.324H642.172H641.022H639.874H638.73H637.589H636.45H635.314H634.181H633.05H631.922H630.797H629.675H628.555H627.438H626.324H625.212H624.103H622.997H621.893H620.792H619.694H618.598H617.504H616.413H615.325H614.239H613.156H612.075H610.997H609.921H608.848H607.777H606.709H605.643H604.579H603.518H602.459H601.403H600.349H599.297H598.248H597.201H596.157H595.114H594.074H593.036H592.001H590.968H589.937H588.908H587.881H586.857H585.835H584.815H583.797H582.782H581.768H580.757H579.747H578.74H577.735H576.732H575.731H574.733H573.736H572.741H571.748H570.757H569.769H568.782H567.797H566.814H565.833H564.854H563.877H562.902H561.929H560.958H559.988H559.02H558.055H557.091H556.128H555.168H554.21H553.253H552.298H551.344H550.393H549.443H548.495H547.549H546.604H545.661H544.72H543.78H542.842H541.906H540.971H540.038H539.106H538.176H537.248H536.321H535.395H534.472H533.549H532.628H531.709H530.791H529.875H528.96H528.047H527.135H526.224H525.315H524.407H523.501H522.596H521.692H520.789H519.888H518.989H518.09H517.193H516.297H515.403H514.509H513.617H512.726H511.837H510.948H510.061H509.175H508.29H507.406H506.524H505.642H504.762H503.883H503.005H502.127H501.251H500.376H499.503H498.63H497.758H496.887H496.017H495.148H494.28H493.413H492.547H491.682H490.818H489.955H489.092H488.231H487.37H486.51H485.651H484.793H483.936H483.079H482.223H481.369H480.514H479.661H478.808H477.956H477.105H476.254H475.405H474.555H473.707H472.859H472.012H471.165H470.319H469.474H468.629H467.785H466.941H466.098H465.256H464.414H463.572H462.731H461.891H461.051H460.211H459.372H458.533H457.695H456.857H456.02H455.183H454.346H453.51H452.674H451.838H451.003H450.168H449.333H448.499H447.665H446.831H445.998H445.164H444.331H443.498H442.666H441.833H441.001H440.169H439.337H438.505H437.673H436.841H436.01H435.178H434.347H433.516H432.685H431.853H431.022H430.191H429.36H428.529H427.698H426.866H426.035H425.204H424.372H423.541H422.709H421.878H421.046H420.214H419.382H418.549H417.717H416.884H416.052H415.219H414.385H413.552H412.718H411.884H411.05H410.215H409.38H408.545H407.71H406.874H406.038H405.201H404.364H403.527H402.689H401.851H401.012H400.173H399.334H398.494H397.654H396.813H395.972H395.13H394.287H393.444H392.601H391.757H390.912H390.067H389.221H388.375H387.528H386.68H385.832H384.983H384.133H383.283H382.432H381.58H380.728H379.875H379.021H378.166H377.31H376.454H375.597H374.739H373.88H373.021H372.16H371.299H370.437H369.574H368.71H367.845H366.979H366.113H365.245H364.377H363.507H362.636H361.765H360.892H360.019H359.144H358.268H357.391H356.514H355.635H354.755H353.873H352.991H352.108H351.223H350.338H349.451H348.563H347.673H346.783H345.891H344.998H344.104H343.208H342.312H341.414H340.514H339.614H338.712H337.808H336.904H335.998H335.09H334.182H333.271H332.36H331.447H330.532H329.616H328.699H327.78H326.86H325.938H325.015H324.09H323.163H322.235H321.306H320.375H319.442H318.508H317.572H316.634H315.695H314.754H313.812H312.867H311.922H310.974H310.025H309.074H308.121H307.166H306.21H305.252H304.292H303.331H302.367H301.402H300.435H299.466H298.495H297.522H296.548H295.571H294.593H293.613H292.63H291.646H290.66H289.672H288.682H287.689H286.695H285.699H284.701H283.701H282.698H281.694H280.687H279.679H278.668H277.655H276.64H275.623H274.604H273.582H272.558H271.533H270.504H269.474H268.442H267.407H266.37H265.33H264.289H263.245H262.198H261.15H260.099H259.046H257.99H256.932H255.871H254.809H253.743H252.676H251.606H250.533H249.458H248.381H247.301H246.218H245.133H244.046H242.955H241.863H240.768H239.67H238.569H237.467H236.361H235.253H234.142H233.028H231.912H230.793H229.672H228.548H227.421H226.291H225.158H224.023H222.885H221.745H220.956C201.837 846.875 191.442 788.151 191.442 726.998Z" stroke="white" stroke-opacity="0.05"/>
</g>
<defs>
<filter id="filter0_d_2182_8" x="-7.5" y="0" width="1454" height="920" filterUnits="userSpaceOnUse" color-interpolation-filters="sRGB">
<feFlood flood-opacity="0" result="BackgroundImageFix"/>
<feColorMatrix in="SourceAlpha" type="matrix" values="0 0 0 0 0 0 0 0 0 0 0 0 0 0 0 0 0 0 127 0" result="hardAlpha"/>
<feOffset/>
<feGaussianBlur stdDeviation="9"/>
<feColorMatrix type="matrix" values="0 0 0 0 0 0 0 0 0 0 0 0 0 0 0 0 0 0 0.1 0"/>
<feBlend mode="normal" in2="BackgroundImageFix" result="effect1_dropShadow_2182_8"/>
<feBlend mode="normal" in="SourceGraphic" in2="effect1_dropShadow_2182_8" result="shape"/>
</filter>
<filter id="filter1_d_2182_8" x="82.1972" y="89.6973" width="1274.6" height="830.803" filterUnits="userSpaceOnUse" color-interpolation-filters="sRGB">
<feFlood flood-opacity="0" result="BackgroundImageFix"/>
<feColorMatrix in="SourceAlpha" type="matrix" values="0 0 0 0 0 0 0 0 0 0 0 0 0 0 0 0 0 0 127 0" result="hardAlpha"/>
<feOffset/>
<feGaussianBlur stdDeviation="9"/>
<feColorMatrix type="matrix" values="0 0 0 0 0 0 0 0 0 0 0 0 0 0 0 0 0 0 0.1 0"/>
<feBlend mode="normal" in2="BackgroundImageFix" result="effect1_dropShadow_2182_8"/>
<feBlend mode="normal" in="SourceGraphic" in2="effect1_dropShadow_2182_8" result="shape"/>
</filter>
<filter id="filter2_d_2182_8" x="172.942" y="180.442" width="1093.11" height="739.558" filterUnits="userSpaceOnUse" color-interpolation-filters="sRGB">
<feFlood flood-opacity="0" result="BackgroundImageFix"/>
<feColorMatrix in="SourceAlpha" type="matrix" values="0 0 0 0 0 0 0 0 0 0 0 0 0 0 0 0 0 0 127 0" result="hardAlpha"/>
<feOffset/>
<feGaussianBlur stdDeviation="9"/>
<feColorMatrix type="matrix" values="0 0 0 0 0 0 0 0 0 0 0 0 0 0 0 0 0 0 0.1 0"/>
<feBlend mode="normal" in2="BackgroundImageFix" result="effect1_dropShadow_2182_8"/>
<feBlend mode="normal" in="SourceGraphic" in2="effect1_dropShadow_2182_8" result="shape"/>
</filter>
</defs>
</svg>
