<svg width="1235" height="295" viewBox="0 0 1235 295" fill="none" xmlns="http://www.w3.org/2000/svg">
<path d="M208.057 245.939H213.82V252.271H208.057V245.939Z" fill="#E1DEDE"/>
<path d="M191.906 245.939H195.884V252.271H191.906V245.939Z" fill="#E1DEDE"/>
<path d="M506.867 17.1777H560.867V23.4277H506.867V17.1777Z" fill="#E1DEDE"/>
<path d="M525.117 0.802734H555.867V15.1777H525.117V0.802734Z" fill="#E1DEDE"/>
<path d="M557.891 102.172H561.778V105.187H557.891V102.172Z" fill="#E1DEDE"/>
<path d="M508.9 113.223H526.95V116.289H508.9V113.223Z" fill="#E1DEDE"/>
<path fill-rule="evenodd" clip-rule="evenodd" d="M0.851562 295H1235V279.303H1215.49V266.303H1201.24V242.053H1176.24V260.803H1165.49V161.053H1124.74V243.803H1119.99V100.803L1080.74 51.3027V107.553H1074.49V14.3027L1034.74 53.0527V195.803L1029.99 194.303V176.553H971.242V252.803H947.742V104.803H885.742V220.303H860.492V150.553L844.492 132.553L821.742 172.803V257.053H806.242V88.5527H752.742V188.553H691.492V235.053H671.242V152.303H644.992V99.5527L614.742 73.3027L605.492 79.3027V124.303H579.742V193.053H632.492V268.053H627.742V196.803H563.742V27.8027H504.242V173.803H489.242V270.803H481.492V109.553H441.742V235.553H418.742V135.303H390.492V249.553H379.992V187.053H331.742V241.053H309.492V109.553H296.242V83.0527L252.742 109.553V139.053H215.992V206.053H176.992V168.803H155.492L133.242 182.553V237.553H115.242V214.553H77.7422V276.803H51.7422V245.303H28.7422V268.553H14.9922V287.803H0.851562V295ZM224.617 148.053V157.303H234.617V148.053H224.617ZM240.742 148.053V157.303H250.742V148.053H240.742ZM224.617 160.928V170.178H234.617V160.928H224.617ZM224.617 173.678V182.928H234.617V173.678H224.617ZM224.617 187.428V196.678H234.617V187.428H224.617ZM250.742 170.178H240.742V160.928H250.742V170.178ZM240.742 182.928H250.742V173.678H240.742V182.928ZM250.742 196.678H240.742V187.428H250.742V196.678ZM240.742 209.197H250.742V199.947H240.742V209.197ZM250.742 222.269H240.742V213.019H250.742V222.269ZM208.057 245.939H213.82V252.271H208.057V245.939ZM195.884 245.939H191.906V252.271H195.884V245.939ZM183.789 245.939H187.767V252.271H183.789V245.939ZM187.767 235.227H183.789V241.558H187.767V235.227ZM183.789 224.025H187.767V230.357H183.789V224.025ZM187.767 213.312H183.789V219.644H187.767V213.312ZM191.906 213.312H195.884V219.644H191.906V213.312ZM204.486 213.312H199.859V219.644H204.486V213.312ZM208.057 213.312H213.82V219.644H208.057V213.312ZM223.154 213.312H217.391V219.644H223.154V213.312ZM217.391 224.025H223.154V230.357H217.391V224.025ZM213.82 224.025H208.057V230.357H213.82V224.025ZM199.859 224.025H204.486V230.357H199.859V224.025ZM195.884 235.227H191.906V241.558H195.884V235.227ZM199.859 235.227H204.486V241.558H199.859V235.227ZM213.82 235.227H208.057V241.558H213.82V235.227ZM217.391 235.227H223.154V241.558H217.391V235.227ZM187.767 257.141H183.789V263.472H187.767V257.141ZM191.906 257.141H195.884V263.472H191.906V257.141ZM204.486 257.141H199.859V263.472H204.486V257.141ZM208.057 257.141H213.82V263.472H208.057V257.141ZM223.154 257.141H217.391V263.472H223.154V257.141ZM270.742 129.053H275.492V250.303H270.742V129.053ZM284.492 129.053H279.742V260.053H284.492V129.053ZM288.742 129.053H293.492V260.053H288.742V129.053ZM302.492 129.053H298.617V260.053H302.492V129.053ZM338.867 254.053H352.867V258.303H338.867V254.053ZM352.867 247.803H338.867V252.053H352.867V247.803ZM338.867 240.928H352.867V245.178H338.867V240.928ZM352.867 234.678H338.867V238.928H352.867V234.678ZM338.867 228.428H352.867V232.678H338.867V228.428ZM352.867 216.303H338.867V220.553H352.867V216.303ZM338.867 202.553H352.867V206.803H338.867V202.553ZM352.867 196.303H338.867V200.553H352.867V196.303ZM358.367 196.303H372.367V200.553H358.367V196.303ZM372.367 202.553H358.367V206.803H372.367V202.553ZM358.367 209.428H372.367V213.678H358.367V209.428ZM372.367 216.303H358.367V220.553H372.367V216.303ZM358.367 222.553H372.367V226.803H358.367V222.553ZM372.367 234.303H358.367V238.553H372.367V234.303ZM358.367 240.928H372.367V245.178H358.367V240.928ZM372.367 247.803H358.367V252.053H372.367V247.803ZM358.367 254.053H372.367V258.303H358.367V254.053ZM372.367 260.928H358.367V265.178H372.367V260.928ZM358.367 267.178H372.367V271.428H358.367V267.178ZM589.742 206.178H578.867V227.428H589.742V206.178ZM594.242 206.178H605.117V227.428H594.242V206.178ZM620.492 206.178H609.617V227.428H620.492V206.178ZM609.617 234.678H620.492V255.928H609.617V234.678ZM704.242 197.303H697.805V205.115H704.242V197.303ZM707.93 197.303H714.742V205.115H707.93V197.303ZM726.555 197.303H719.742V205.115H726.555V197.303ZM729.93 197.303H736.742V205.115H729.93V197.303ZM748.992 197.303H741.742V205.115H748.992V197.303ZM751.742 197.303H758.992V205.115H751.742V197.303ZM771.617 197.303H764.367V205.115H771.617V197.303ZM773.992 197.303H781.242V205.115H773.992V197.303ZM781.242 207.24H773.992V211.24H781.242V207.24ZM764.367 207.24H771.617V211.24H764.367V207.24ZM758.992 207.24H751.742V211.24H758.992V207.24ZM741.742 207.24H748.992V211.24H741.742V207.24ZM736.742 207.24H729.93V211.24H736.742V207.24ZM719.742 207.24H726.555V211.24H719.742V207.24ZM714.742 207.24H707.93V211.24H714.742V207.24ZM697.805 207.24H704.242V211.24H697.805V207.24ZM704.242 218.771H697.805V227.271H704.242V218.771ZM707.93 218.771H714.742V227.271H707.93V218.771ZM726.555 218.771H719.742V227.271H726.555V218.771ZM729.93 218.771H736.742V227.271H729.93V218.771ZM748.992 218.771H741.742V227.271H748.992V218.771ZM751.742 218.771H758.992V227.271H751.742V218.771ZM771.617 218.771H764.367V227.271H771.617V218.771ZM773.992 218.771H781.242V227.271H773.992V218.771ZM781.242 229.396H773.992V233.396H781.242V229.396ZM764.367 229.396H771.617V233.396H764.367V229.396ZM758.992 229.396H751.742V233.396H758.992V229.396ZM741.742 229.396H748.992V233.396H741.742V229.396ZM736.742 229.396H729.93V233.396H736.742V229.396ZM719.742 229.396H726.555V233.396H719.742V229.396ZM714.742 229.396H707.93V233.396H714.742V229.396ZM697.805 229.396H704.242V233.396H697.805V229.396ZM704.242 240.146H697.805V248.646H704.242V240.146ZM707.93 240.146H714.742V248.646H707.93V240.146ZM726.555 240.146H719.742V248.646H726.555V240.146ZM729.93 240.146H736.742V248.646H729.93V240.146ZM748.992 240.146H741.742V248.646H748.992V240.146ZM751.742 240.146H758.992V248.646H751.742V240.146ZM771.617 240.146H764.367V248.646H771.617V240.146ZM773.992 240.146H781.242V248.646H773.992V240.146ZM781.242 250.771H773.992V254.771H781.242V250.771ZM764.367 250.771H771.617V254.771H764.367V250.771ZM758.992 250.771H751.742V254.771H758.992V250.771ZM741.742 250.771H748.992V254.771H741.742V250.771ZM736.742 250.771H729.93V254.771H736.742V250.771ZM719.742 250.771H726.555V254.771H719.742V250.771ZM714.742 250.771H707.93V254.771H714.742V250.771ZM697.805 250.771H704.242V254.771H697.805V250.771ZM704.242 262.146H697.805V270.646H704.242V262.146ZM707.93 262.146H714.742V270.646H707.93V262.146ZM726.555 262.146H719.742V270.646H726.555V262.146ZM729.93 262.146H736.742V270.646H729.93V262.146ZM748.992 262.146H741.742V270.646H748.992V262.146ZM751.742 262.146H758.992V270.646H751.742V262.146ZM771.617 262.146H764.367V270.646H771.617V262.146ZM773.992 262.146H781.242V270.646H773.992V262.146ZM781.242 272.771H773.992V276.771H781.242V272.771ZM764.367 272.771H771.617V276.771H764.367V272.771ZM758.992 272.771H751.742V276.771H758.992V272.771ZM741.742 272.771H748.992V276.771H741.742V272.771ZM736.742 272.771H729.93V276.771H736.742V272.771ZM719.742 272.771H726.555V276.771H719.742V272.771ZM714.742 272.771H707.93V276.771H714.742V272.771ZM697.805 272.771H704.242V276.771H697.805V272.771ZM845.867 239.428H830.992V244.24H845.867V239.428ZM840.742 232.553H845.867V236.428H840.742V232.553ZM836.867 232.553H830.992V236.428H836.867V232.553ZM830.992 221.365H845.867V225.49H830.992V221.365ZM836.867 214.49H830.992V218.178H836.867V214.49ZM840.742 214.49H845.867V218.178H840.742V214.49ZM845.867 203.303H830.992V206.365H845.867V203.303ZM830.992 196.115H836.867V199.803H830.992V196.115ZM845.867 196.115H840.742V199.803H845.867V196.115ZM830.992 184.928H845.867V188.553H830.992V184.928ZM836.867 177.428H830.992V181.115H836.867V177.428ZM840.742 177.428H845.867V181.115H840.742V177.428ZM845.867 165.865H839.055L837.867 169.553H845.867V165.865ZM842.035 158.428H845.867V162.365H841.367L842.035 158.428ZM1047.83 60.3184H1041.92V65.2611H1047.83V60.3184ZM1051.81 60.3184H1057.03V65.2611H1051.81V60.3184ZM1064.9 60.3184H1060.87V65.2611H1064.9V60.3184ZM1067.88 60.3184H1070.99V65.2611H1067.88V60.3184ZM1070.99 69.3359H1067.88V74.2787H1070.99V69.3359ZM1060.87 69.3359H1064.9V74.2787H1060.87V69.3359ZM1057.03 69.3359H1051.81V74.2787H1057.03V69.3359ZM1041.92 69.3359H1047.83V74.2787H1041.92V69.3359ZM1047.83 78.3535H1041.92V83.2962H1047.83V78.3535ZM1051.81 78.3535H1057.03V83.2962H1051.81V78.3535ZM1064.9 78.3535H1060.87V83.2962H1064.9V78.3535ZM1067.88 78.3535H1070.99V83.2962H1067.88V78.3535ZM1070.99 87.3242H1067.88V91.4444H1070.99V87.3242ZM1060.87 87.3242H1064.9V91.4444H1060.87V87.3242ZM1057.03 87.3242H1051.81V91.4444H1057.03V87.3242ZM1041.92 87.3242H1047.83V91.4444H1041.92V87.3242ZM1047.83 95.4258H1041.92V100.369H1047.83V95.4258ZM1051.81 95.4258H1057.03V100.369H1051.81V95.4258ZM1064.9 95.4258H1060.87V100.369H1064.9V95.4258ZM1067.88 95.4258H1070.99V100.369H1067.88V95.4258ZM1070.99 104.307H1067.88V109.25H1070.99V104.307ZM1060.87 104.307H1064.9V109.25H1060.87V104.307ZM1057.03 104.307H1051.81V109.25H1057.03V104.307ZM1041.92 104.307H1047.83V109.25H1041.92V104.307ZM1047.83 113.188H1041.92V118.131H1047.83V113.188ZM1051.81 113.188H1057.03V118.131H1051.81V113.188ZM1064.9 113.188H1060.87V118.131H1064.9V113.188ZM1067.88 113.188H1070.99V118.131H1067.88V113.188ZM1070.99 122.297H1067.88V126.416H1070.99V122.297ZM1060.87 122.297H1064.9V126.416H1060.87V122.297ZM1057.03 122.297H1051.81V126.416H1057.03V122.297ZM1041.92 122.297H1047.83V126.416H1041.92V122.297ZM1047.83 131.223H1041.92V135.342H1047.83V131.223ZM1051.81 131.223H1057.03V135.342H1051.81V131.223ZM1064.9 131.223H1060.87V135.342H1064.9V131.223ZM1060.87 140.148H1064.9V144.268H1060.87V140.148ZM1057.03 140.148H1051.81V144.268H1057.03V140.148ZM1041.92 140.148H1047.83V144.268H1041.92V140.148ZM1047.83 148.303H1041.92V153.377H1047.83V148.303ZM1051.81 148.303H1057.03V153.377H1051.81V148.303ZM1064.9 148.303H1060.87V153.377H1064.9V148.303ZM1060.87 157.412H1064.9V162.487H1060.87V157.412ZM1057.03 157.412H1051.81V162.487H1057.03V157.412ZM1041.92 157.412H1047.83V162.487H1041.92V157.412ZM1047.83 166.201H1041.92V171.276H1047.83V166.201ZM1051.81 166.201H1057.03V171.276H1051.81V166.201ZM1064.9 166.201H1060.87V171.276H1064.9V166.201ZM1060.87 174.303H1064.9V179.377H1060.87V174.303ZM1057.03 174.303H1051.81V179.377H1057.03V174.303ZM1041.92 174.303H1047.83V179.377H1041.92V174.303ZM1047.83 183.275H1041.92V188.35H1047.83V183.275ZM1051.81 183.275H1057.03V188.35H1051.81V183.275ZM1064.9 183.275H1060.87V188.35H1064.9V183.275ZM1060.87 192.338H1064.9V197.412H1060.87V192.338ZM1057.03 192.338H1051.81V197.412H1057.03V192.338ZM1041.92 192.338H1047.83V197.412H1041.92V192.338ZM1047.83 201.4H1041.92V205.377H1047.83V201.4ZM1051.81 201.4H1057.03V205.377H1051.81V201.4ZM1064.9 201.4H1060.87V205.377H1064.9V201.4ZM1060.87 210.373H1064.9V214.35H1060.87V210.373ZM1057.03 210.373H1051.81V214.35H1057.03V210.373ZM1041.92 210.373H1047.83V214.35H1041.92V210.373ZM1048.1 219.346H1042.2V223.323H1048.1V219.346ZM1052.09 219.346H1057.3V223.323H1052.09V219.346ZM1065.18 219.346H1061.15V223.323H1065.18V219.346ZM1061.15 227.355H1065.18V232.293H1061.15V227.355ZM1057.3 227.355H1052.09V232.293H1057.3V227.355ZM1042.2 227.355H1048.1V232.293H1042.2V227.355ZM1048.1 236.326H1042.2V241.263H1048.1V236.326ZM1052.09 236.326H1057.3V241.263H1052.09V236.326ZM1065.18 236.326H1061.15V241.263H1065.18V236.326ZM1061.15 245.297H1065.18V249.321H1061.15V245.297ZM1057.3 245.297H1052.09V249.321H1057.3V245.297ZM1042.2 245.297H1048.1V249.321H1042.2V245.297ZM1047.65 254.27H1041.74V258.294H1047.65V254.27ZM1041.74 263.012H1047.65V267.036H1041.74V263.012ZM940.492 121.053H892.992V127.553H940.492V121.053ZM892.992 129.303H940.492V132.178H892.992V129.303ZM940.492 142.553H892.992V149.053H940.492V142.553ZM892.992 150.803H940.492V155.053H892.992V150.803ZM940.492 165.428H892.992V171.928H940.492V165.428ZM892.992 172.928H940.492V176.928H892.992V172.928ZM940.492 187.303H892.992V193.803H940.492V187.303ZM892.992 195.428H940.492V199.428H892.992V195.428ZM940.492 209.178H892.992V215.678H940.492V209.178ZM892.992 217.303H940.492V221.303H892.992V217.303ZM888.867 229.428H879.867V234.428H888.867V229.428ZM893.992 229.428H900.242V234.428H893.992V229.428ZM908.992 229.428H904.867V234.428H908.992V229.428ZM904.867 239.553H908.992V244.553H904.867V239.553ZM900.242 239.553H893.992V244.553H900.242V239.553ZM879.867 239.553H888.867V244.553H879.867V239.553ZM888.867 250.303H879.867V255.303H888.867V250.303ZM893.992 250.303H900.242V255.303H893.992V250.303ZM908.992 250.303H904.867V255.303H908.992V250.303ZM893.992 261.053H900.242V266.053H893.992V261.053ZM888.867 261.053H879.867V266.053H888.867V261.053ZM1085.87 104.24H1089.87V108.24H1085.87V104.24ZM1096.93 104.24H1092.93V108.24H1096.93V104.24ZM1100.87 104.24H1104.87V108.24H1100.87V104.24ZM1112.8 104.24H1108.8V108.24H1112.8V104.24ZM1108.87 112.178H1111.99V115.365H1108.87V112.178ZM1104.74 112.178H1101.62V115.365H1104.74V112.178ZM1093.74 112.178H1096.87V115.365H1093.74V112.178ZM1088.99 112.178H1085.87V115.365H1088.99V112.178ZM1085.87 119.303H1088.99V122.49H1085.87V119.303ZM1096.87 119.303H1093.74V122.49H1096.87V119.303ZM1101.62 119.303H1104.74V122.49H1101.62V119.303ZM1111.99 119.303H1108.87V122.49H1111.99V119.303ZM1108.87 126.803H1111.99V129.99H1108.87V126.803ZM1104.74 126.803H1101.62V129.99H1104.74V126.803ZM1093.74 126.803H1096.87V129.99H1093.74V126.803ZM1088.99 126.803H1085.87V129.99H1088.99V126.803ZM1085.87 134.24H1088.99V137.428H1085.87V134.24ZM1096.87 134.24H1093.74V137.428H1096.87V134.24ZM1101.62 134.24H1104.74V137.428H1101.62V134.24ZM1111.99 134.24H1108.87V137.428H1111.99V134.24ZM1108.87 141.303H1111.99V144.49H1108.87V141.303ZM1104.74 141.303H1101.62V144.49H1104.74V141.303ZM1093.74 141.303H1096.87V144.49H1093.74V141.303ZM1088.99 141.303H1085.87V144.49H1088.99V141.303ZM1085.87 149.178H1088.99V152.365H1085.87V149.178ZM1096.87 149.178H1093.74V152.365H1096.87V149.178ZM1108.87 149.178H1111.99V152.365H1108.87V149.178ZM1111.99 156.24H1108.87V159.428H1111.99V156.24ZM1101.62 156.24H1104.74V159.428H1101.62V156.24ZM1096.87 156.24H1093.74V159.428H1096.87V156.24ZM1085.87 156.24H1088.99V159.428H1085.87V156.24ZM1088.99 163.74H1085.87V166.928H1088.99V163.74ZM1093.74 163.74H1096.87V166.928H1093.74V163.74ZM1104.74 163.74H1101.62V166.928H1104.74V163.74ZM1108.87 163.74H1111.99V166.928H1108.87V163.74ZM1111.99 171.24H1108.87V174.428H1111.99V171.24ZM1101.62 171.24H1104.74V174.428H1101.62V171.24ZM1096.87 171.24H1093.74V174.428H1096.87V171.24ZM1085.87 178.74H1088.99V181.928H1085.87V178.74ZM1096.87 178.74H1093.74V181.928H1096.87V178.74ZM1101.62 178.74H1104.74V181.928H1101.62V178.74ZM1111.99 178.74H1108.87V181.928H1111.99V178.74ZM1108.87 185.803H1111.99V188.99H1108.87V185.803ZM1104.74 185.803H1101.62V188.99H1104.74V185.803ZM1093.74 185.803H1096.87V188.99H1093.74V185.803ZM1088.99 185.803H1085.87V188.99H1088.99V185.803ZM1085.87 193.615H1088.99V196.803H1085.87V193.615ZM1104.74 193.615H1101.62V196.803H1104.74V193.615ZM1108.87 193.615H1111.99V196.803H1108.87V193.615ZM1111.99 201.115H1108.87V204.303H1111.99V201.115ZM1101.62 201.115H1104.74V204.303H1101.62V201.115ZM1096.87 201.115H1093.74V204.303H1096.87V201.115ZM1085.87 201.115H1088.99V204.303H1085.87V201.115ZM1088.99 208.178H1085.87V211.365H1088.99V208.178ZM1093.74 208.178H1096.87V211.365H1093.74V208.178ZM1104.74 208.178H1101.62V211.365H1104.74V208.178ZM1108.87 208.178H1111.99V211.365H1108.87V208.178ZM1104.74 215.24H1101.62V218.428H1104.74V215.24ZM1093.74 215.24H1096.87V218.428H1093.74V215.24ZM1088.99 215.24H1085.87V218.428H1088.99V215.24ZM1085.87 223.053H1088.99V226.24H1085.87V223.053ZM1096.87 223.053H1093.74V226.24H1096.87V223.053ZM1093.74 230.115H1096.87V233.303H1093.74V230.115ZM1088.99 230.115H1085.87V233.303H1088.99V230.115ZM1085.87 237.928H1088.99V241.115H1085.87V237.928ZM1088.99 245.303H1085.87V248.49H1088.99V245.303ZM1085.87 252.678H1088.99V255.865H1085.87V252.678ZM1088.99 260.053H1085.87V263.24H1088.99V260.053ZM1085.87 267.428H1088.99V270.615H1085.87V267.428ZM1088.99 274.803H1085.87V277.99H1088.99V274.803ZM508.9 30.2695H561.778V33.2774H508.9V30.2695ZM537.826 36.1113H508.9V39.0049H537.826V36.1113ZM508.9 41.4336H537.074V44.3271H508.9V41.4336ZM536.901 47.2773H508.9V50.3442H536.901V47.2773ZM508.9 52.252H535.859V55.3188H508.9V52.252ZM534.876 58.1523H508.9V61.2192H534.876V58.1523ZM508.9 63.5898H534.066V66.6567H508.9V63.5898ZM533.025 69.4336H508.9V72.5004H533.025V69.4336ZM508.9 74.8711H531.868V77.9379H508.9V74.8711ZM531.058 80.3086H508.9V83.3754H531.058V80.3086ZM508.9 85.7461H529.785V88.8129H508.9V85.7461ZM529.033 91.1836H508.9V94.2504H529.033V91.1836ZM508.9 96.6211H529.033V99.6879H508.9V96.6211ZM528.049 102.348H508.9V105.414H528.049V102.348ZM508.9 107.785H526.95V110.852H508.9V107.785ZM526.95 113.223H508.9V116.289H526.95V113.223ZM508.9 119.123H526.082V122.19H508.9V119.123ZM525.041 124.215H508.9V127.282H525.041V124.215ZM508.9 130.232H524.115V132.669H508.9V130.232ZM523.074 135.621H508.9V138.058H523.074V135.621ZM508.9 141.357H522.032V143.794H508.9V141.357ZM521.107 146.684H508.9V149.121H521.107V146.684ZM508.9 152.41H520.181V155.464H508.9V152.41ZM519.892 157.27H508.9V160.323H519.892V157.27ZM508.9 163.287H519.892V166.341H508.9V163.287ZM519.892 168.146H508.9V171.2H519.892V168.146ZM508.9 174.105H519.892V177.159H508.9V174.105ZM519.892 180.064H508.9V182.365H519.892V180.064ZM508.9 185.271H519.892V188.324H508.9V185.271ZM519.892 190.594H508.9V193.646H519.892V190.594ZM508.9 196.379H519.892V199.432H508.9V196.379ZM519.892 201.701H508.9V204.754H519.892V201.701ZM508.9 207.312H519.892V210.365H508.9V207.312ZM519.892 212.924H508.9V215.977H519.892V212.924ZM508.9 218.189H519.892V221.242H508.9V218.189ZM561.778 179.307H557.891V182.321H561.778V179.307ZM557.891 184.352H561.778V187.366H557.891V184.352ZM561.778 190.098H557.891V193.112H561.778V190.098ZM557.891 195.143H561.778V198.157H557.891V195.143ZM561.778 201.17H557.891V204.185H561.778V201.17ZM557.891 206.215H561.778V209.23H557.891V206.215ZM561.778 213.234H557.891V216.249H561.778V213.234ZM508.9 224.146H519.892V227.199H508.9V224.146ZM519.892 229.18H508.9V232.232H519.892V229.18ZM508.9 235.08H519.892V238.133H508.9V235.08ZM519.892 240.518H508.9V243.57H519.892V240.518ZM508.9 245.955H519.892V249.008H508.9V245.955ZM519.892 251.393H508.9V254.445H519.892V251.393ZM557.891 218.279H561.778V221.294H557.891V218.279ZM561.778 224.307H557.891V227.321H561.778V224.307ZM557.891 229.352H561.778V232.366H557.891V229.352ZM561.778 235.391H557.891V238.405H561.778V235.391ZM557.891 240.436H561.778V243.45H557.891V240.436ZM561.778 246.463H557.891V249.478H561.778V246.463ZM557.891 251.508H561.778V254.523H557.891V251.508ZM519.892 279.334H508.9V282.387H519.892V279.334ZM508.9 273.838H519.892V276.891H508.9V273.838ZM519.892 268.4H508.9V271.453H519.892V268.4ZM508.9 262.211H519.892V265.264H508.9V262.211ZM519.892 257.178H508.9V260.23H519.892V257.178ZM557.891 279.246H561.778V282.261H557.891V279.246ZM561.778 273.371H557.891V276.386H561.778V273.371ZM557.891 268.326H561.778V271.341H557.891V268.326ZM561.778 262.299H557.891V265.314H561.778V262.299ZM557.891 257.254H561.778V260.269H557.891V257.254ZM561.778 173.279H557.891V176.294H561.778V173.279ZM557.891 168.234H561.778V171.249H557.891V168.234ZM561.778 162.195H557.891V165.21H561.778V162.195ZM557.891 157.15H561.778V160.165H557.891V157.15ZM561.778 151.123H557.891V154.138H561.778V151.123ZM557.891 146.078H561.778V149.093H557.891V146.078ZM561.778 140.332H557.891V143.347H561.778V140.332ZM557.891 135.287H561.778V138.302H557.891V135.287ZM561.778 129.26H557.891V132.275H561.778V129.26ZM557.891 124.215H561.778V127.23H557.891V124.215ZM561.778 118.289H557.891V121.304H561.778V118.289ZM557.891 113.244H561.778V116.259H557.891V113.244ZM561.778 107.217H557.891V110.232H561.778V107.217ZM557.891 96.4258H561.778V99.4405H557.891V96.4258ZM561.778 91.3809H557.891V94.3956H561.778V91.3809ZM557.891 85.3535H561.778V88.3682H557.891V85.3535ZM561.778 80.3086H557.891V83.3233H561.778V80.3086ZM557.891 74.2695H561.778V77.2843H557.891V74.2695ZM561.778 69.2246H557.891V72.2393H561.778V69.2246ZM557.891 63.1973H561.778V66.212H557.891V63.1973ZM561.778 58.1523H557.891V61.1671H561.778V58.1523ZM557.891 52.4062H561.778V55.421H557.891V52.4062ZM561.778 47.3613H557.891V50.3761H561.778V47.3613ZM557.891 41.334H561.778V44.3487H557.891V41.334ZM561.778 36.2891H557.891V39.3038H561.778V36.2891Z" fill="#E1DEDE"/>
</svg>
